<?xml version="1.0" encoding="UTF-8"?>
<svg version="1.1" xmlns="http://www.w3.org/2000/svg" width="144" height="129">
<path d="M0 0 C47.52 0 95.04 0 144 0 C144 42.57 144 85.14 144 129 C96.48 129 48.96 129 0 129 C0 86.43 0 43.86 0 0 Z " fill="#F3F3F9" transform="translate(0,0)"/>
<path d="M0 0 C6.86725946 4.74113774 11.08726486 9.80074205 13 18 C13.86671895 24.07711079 13.03184635 29.63352631 10 35 C6.97887688 38.97102708 3.53900774 42.49336123 0 46 C5.68447951 45.36268042 8.8898349 42.14747572 13.18359375 38.6171875 C16 37 16 37 19.2265625 37.1484375 C22 38 22 38 23.9375 39.75 C25 42 25 42 25 44.4375 C22.30742011 51.33723596 14.13499393 56.1906623 8.16015625 60.25 C5.00466981 61.34557576 2.29969784 60.68715319 -1 60.3125 C-5.51845139 60.08726246 -8.75486092 60.35943978 -12.23046875 63.4296875 C-14.87042447 66.1711469 -17.21801967 69.13977782 -19.53955078 72.15234375 C-21.90642748 75.14674744 -24.51426332 77.90624411 -27.125 80.6875 C-28.12129417 81.75892826 -29.11739091 82.83054013 -30.11328125 83.90234375 C-30.59490723 84.41780762 -31.0765332 84.93327148 -31.57275391 85.46435547 C-32.51568032 86.47889655 -33.45299093 87.49868949 -34.38427734 88.52392578 C-35.6784045 89.94666768 -36.99504408 91.34883281 -38.3125 92.75 C-39.05113281 93.54921875 -39.78976563 94.3484375 -40.55078125 95.171875 C-43.69415481 97.51812512 -46.12370531 97.79981577 -50 98 C-51.9375 97 -51.9375 97 -53 95 C-53.41015625 91.73828125 -53.41015625 91.73828125 -53 88 C-51.19110356 85.73006989 -49.64636581 84.05700044 -47.5 82.1875 C-45.62884587 80.48874951 -43.80705792 78.76892196 -42 77 C-42 76.34 -42 75.68 -42 75 C-47.53037832 75.6123266 -49.85775082 78.45449055 -53.62109375 82.28515625 C-56.62597249 84.45123468 -58.37188434 84.40534809 -62 84 C-63.875 82.875 -63.875 82.875 -65 81 C-65.3984375 78.24755859 -65.3984375 78.24755859 -65 75 C-63.30278765 72.77805112 -61.75953857 71.05505957 -59.75 69.1640625 C-59.21729492 68.63984711 -58.68458984 68.11563171 -58.13574219 67.57553101 C-56.43742738 65.91070121 -54.71943325 64.26798194 -53 62.625 C-51.84238637 61.4974921 -50.68611938 60.36859983 -49.53125 59.23828125 C-46.70285311 56.47590307 -43.85662377 53.73316596 -41 51 C-45.21297318 51.63129404 -48.28090986 52.47051179 -52 54.5625 C-55.83608507 56.5526494 -58.59880217 57.85877031 -63 57 C-64.875 55.875 -64.875 55.875 -66 54 C-66.4375 51.0625 -66.4375 51.0625 -66 48 C-62.76284358 43.889061 -58.51294094 41.97359498 -53.875 39.8125 C-53.12033447 39.45736328 -52.36566895 39.10222656 -51.58813477 38.73632812 C-45.9824098 36.20513647 -41.20426279 35 -35 35 C-35.515625 33.948125 -36.03125 32.89625 -36.5625 31.8125 C-38.96829668 25.33181325 -38.57856914 18.01165298 -36.0546875 11.59765625 C-32.19690744 4.94234694 -26.44965317 -0.14808546 -19.1015625 -2.53125 C-12.39259002 -4.02767509 -6.00575364 -3.40402449 0 0 Z " fill="#313132" transform="translate(84,19)"/>
<path d="M0 0 C-0.97263496 4.00725603 -1.98071087 8.00438659 -3 12 C-3.28875 13.19625 -3.5775 14.3925 -3.875 15.625 C-5 18 -5 18 -7.625 19.375 C-8.40875 19.58125 -9.1925 19.7875 -10 20 C-11.15149016 24.59079703 -11.15149016 24.59079703 -9.9375 28.9375 C-7.17331023 30.45334601 -5.09771665 30.32954432 -2 30 C-1.34 29.34 -0.68 28.68 0 28 C3.39138945 28.40549222 6.2409606 30.01838768 9.25 31.5625 C10.14203125 32.01753906 11.0340625 32.47257812 11.953125 32.94140625 C12.96632813 33.46541016 12.96632813 33.46541016 14 34 C12.63880608 38.08358176 10.66807348 38.85452306 7 41 C1.7328722 43.29005557 -3.50911846 44.05460666 -9.04296875 42.3828125 C-15.51458303 39.55382831 -19.82747731 34.58938531 -23.4375 28.625 C-24.61290668 23.13976882 -24.74064397 17.96270652 -22.75 12.6875 C-21.88375 11.3571875 -21.88375 11.3571875 -21 10 C-20.484375 9.154375 -19.96875 8.30875 -19.4375 7.4375 C-14.06598269 2.06598269 -7.57610435 -0.8234896 0 0 Z " fill="#EEEDF3" transform="translate(74,20)"/>
<path d="M0 0 C11.35628021 -1.03762966 11.35628021 -1.03762966 16.375 2.9375 C21.23776702 6.73045828 25.59395025 6.55976004 31.6015625 6.72265625 C36.29487445 7.10567366 39.94408112 8.69306201 44 11 C44 12.98 44 14.96 44 17 C39.71 16.67 35.42 16.34 31 16 C30.34 17.32 29.68 18.64 29 20 C27.484375 21.67578125 27.484375 21.67578125 25.75 23.3125 C22.25449813 26.69808043 19.12222532 30.26855998 16 34 C12.15658769 32.37499432 9.3978798 29.90142989 6.3125 27.125 C5.33925781 26.26132813 4.36601563 25.39765625 3.36328125 24.5078125 C1 22 1 22 -0.10546875 19.96484375 C0.06667332 16.75790067 2.06855612 15.53458975 4.375 13.4375 C7.98163871 10.24839033 7.98163871 10.24839033 10 6 C6.7 6 3.4 6 0 6 C0 4.02 0 2.04 0 0 Z " fill="#E7E6EC" transform="translate(42,59)"/>
<path d="M0 0 C1.65 0.33 3.3 0.66 5 1 C5.66 2.98 6.32 4.96 7 7 C8.3921875 6.9071875 8.3921875 6.9071875 9.8125 6.8125 C13 7 13 7 14.69921875 8.51171875 C15.12847656 9.00285156 15.55773437 9.49398438 16 10 C15.175 10.99 14.35 11.98 13.5 13 C10.50104429 17.13095589 10.5616493 20.00280202 11 25 C8.4562544 24.49125088 5.94414027 23.98501324 3.4375 23.3125 C0.52769336 22.93944787 -0.45637204 23.68715976 -3 25 C-5.12109375 24.5625 -5.12109375 24.5625 -7 24 C-6.95359375 23.39671875 -6.9071875 22.7934375 -6.859375 22.171875 C-6.48437136 16.97065798 -6.48437136 16.97065798 -9 12.625 C-9.66 12.08875 -10.32 11.5525 -11 11 C-11 10.01 -11 9.02 -11 8 C-9.1128125 7.690625 -9.1128125 7.690625 -7.1875 7.375 C-3.51890422 6.49193978 -3.17283915 6.27006117 -1 2.875 C-0.67 1.92625 -0.34 0.9775 0 0 Z " fill="#339EF3" transform="translate(118,15)"/>
<path d="M0 0 C4.91676052 0.45737307 7.53685755 1.44805902 11 5 C15.31628223 10.70365866 16.54321156 15.5097346 16.37109375 22.6171875 C16 25 16 25 14 28 C8.16244186 27.53914015 2.84261626 25.23131409 -2 22 C-4.24014224 18.6765651 -4.10226856 16.24789433 -3.4921875 12.3046875 C-2.59915897 8.12304597 -1.32371364 4.06271859 0 0 Z " fill="#DFDEE3" transform="translate(77,22)"/>
<path d="M0 0 C2.40406534 1.08510342 3.94023217 2.37033418 5.8203125 4.21875 C6.75810547 5.11013672 6.75810547 5.11013672 7.71484375 6.01953125 C9.0078125 7.90625 9.0078125 7.90625 8.9296875 9.90234375 C7.80001765 12.35793966 6.40601076 13.80249892 4.4453125 15.65625 C3.80464844 16.26984375 3.16398437 16.8834375 2.50390625 17.515625 C2.01019531 17.97453125 1.51648437 18.4334375 1.0078125 18.90625 C-1.98439018 17.54254701 -4.28245279 15.95716917 -6.7421875 13.78125 C-7.35578125 13.24242188 -7.969375 12.70359375 -8.6015625 12.1484375 C-9.06046875 11.73851563 -9.519375 11.32859375 -9.9921875 10.90625 C-9.40823544 7.39475159 -8.15939105 5.61593242 -5.6796875 3.09375 C-5.08542969 2.46855469 -4.49117187 1.84335938 -3.87890625 1.19921875 C-1.9921875 -0.09375 -1.9921875 -0.09375 0 0 Z " fill="#2B2B2B" transform="translate(57.9921875,67.09375)"/>
<path d="M0 0 C5.66129431 4.69766975 10.85228904 9.74723372 16 15 C9.84965831 22.48291572 9.84965831 22.48291572 6 25 C5.34 23.68 4.68 22.36 4 21 C4.845625 20.2575 5.69125 19.515 6.5625 18.75 C9.20956571 16.35481767 9.20956571 16.35481767 9.0625 13.9375 C7.653967 11.36899865 6.35413255 9.76559941 4 8 C0.60845705 8.16150205 -0.58296757 8.58296757 -3 11 C-5.125 10.625 -5.125 10.625 -7 10 C-7 7 -7 7 -5.46875 5.17578125 C-4.8190625 4.56089844 -4.169375 3.94601563 -3.5 3.3125 C-2.8503125 2.68988281 -2.200625 2.06726563 -1.53125 1.42578125 C-0.77328125 0.72001953 -0.77328125 0.72001953 0 0 Z " fill="#E7E6EB" transform="translate(38,81)"/>
<path d="M0 0 C1.65 0 3.3 0 5 0 C5 1.32 5 2.64 5 4 C6.32 4 7.64 4 9 4 C9 5.32 9 6.64 9 8 C7.68 8 6.36 8 5 8 C5 9.32 5 10.64 5 12 C3.35 12 1.7 12 0 12 C0 10.68 0 9.36 0 8 C-0.99 8 -1.98 8 -3 8 C-3 6.68 -3 5.36 -3 4 C-2.01 4 -1.02 4 0 4 C0 2.68 0 1.36 0 0 Z " fill="#41A4F4" transform="translate(108,82)"/>
<path d="M0 0 C0.4125 0.61875 0.825 1.2375 1.25 1.875 C3.05573879 4.06768281 4.4090534 4.92788417 7 6 C6.34 6.66 5.68 7.32 5 8 C4.35232207 10.57061311 4.35232207 10.57061311 4 13 C1.36 13 -1.28 13 -4 13 C-4.66 10.36 -5.32 7.72 -6 5 C-5.38125 4.731875 -4.7625 4.46375 -4.125 4.1875 C-1.7004767 3.04443152 -1.7004767 3.04443152 0 0 Z " fill="#E7EDF9" transform="translate(120,21)"/>
<path d="M0 0 C1.32 0 2.64 0 4 0 C4 1.32 4 2.64 4 4 C5.32 4 6.64 4 8 4 C8 5.32 8 6.64 8 8 C6.68 8 5.36 8 4 8 C4 9.32 4 10.64 4 12 C2.68 12 1.36 12 0 12 C0 10.68 0 9.36 0 8 C-1.32 8 -2.64 8 -4 8 C-4 6.68 -4 5.36 -4 4 C-2.68 4 -1.36 4 0 4 C0 2.68 0 1.36 0 0 Z " fill="#5FB1F5" transform="translate(95,103)"/>
<path d="M0 0 C1.32 0 2.64 0 4 0 C4 0.99 4 1.98 4 3 C4.99 3 5.98 3 7 3 C7 4.65 7 6.3 7 8 C6.01 8 5.02 8 4 8 C4 8.99 4 9.98 4 11 C2.68 11 1.36 11 0 11 C0 10.01 0 9.02 0 8 C-1.32 8 -2.64 8 -4 8 C-4 6.35 -4 4.7 -4 3 C-2.68 3 -1.36 3 0 3 C0 2.01 0 1.02 0 0 Z " fill="#4DA9F4" transform="translate(72,96)"/>
<path d="M0 0 C1.32 0 2.64 0 4 0 C4 1.32 4 2.64 4 4 C5.32 4 6.64 4 8 4 C8 5.32 8 6.64 8 8 C6.68 8 5.36 8 4 8 C4 8.99 4 9.98 4 11 C2.68 11 1.36 11 0 11 C0 10.01 0 9.02 0 8 C-1.32 8 -2.64 8 -4 8 C-4 6.68 -4 5.36 -4 4 C-2.68 4 -1.36 4 0 4 C0 2.68 0 1.36 0 0 Z " fill="#5CB0F4" transform="translate(35,30)"/>
<path d="M0 0 C4.40287778 1.34532377 6.54758631 3.09430413 9 7 C9.25 9.8125 9.25 9.8125 9 12 C7.68 11.67 6.36 11.34 5 11 C4.9071875 9.824375 4.9071875 9.824375 4.8125 8.625 C4.544375 7.75875 4.27625 6.8925 4 6 C1.52363988 4.62533375 1.52363988 4.62533375 -1 4 C-0.67 2.68 -0.34 1.36 0 0 Z " fill="#39393A" transform="translate(80,26)"/>
<path d="M0 0 C3.16115776 1.36983503 3.9927092 1.9890638 6 5 C4.68 6.32 3.36 7.64 2 9 C-1.16115776 7.63016497 -1.9927092 7.0109362 -4 4 C-2.68 2.68 -1.36 1.36 0 0 Z " fill="#E9E8ED" transform="translate(57,72)"/>
<path d="M0 0 C1.32 0.66 2.64 1.32 4 2 C3.875 3.8125 3.875 3.8125 3 6 C-0.0625 7.75 -0.0625 7.75 -3 9 C-3.33 7.02 -3.66 5.04 -4 3 C-2.68 2.01 -1.36 1.02 0 0 Z " fill="#DFDEE3" transform="translate(93,66)"/>
<path d="M0 0 C0.33 1.32 0.66 2.64 1 4 C2.32 4 3.64 4 5 4 C5 5.32 5 6.64 5 8 C3.68 8 2.36 8 1 8 C0.67 9.32 0.34 10.64 0 12 C0 10.68 0 9.36 0 8 C-0.99 8 -1.98 8 -3 8 C-3 6.68 -3 5.36 -3 4 C-2.01 4 -1.02 4 0 4 C0 2.68 0 1.36 0 0 Z " fill="#8DC6F6" transform="translate(112,82)"/>
<path d="M0 0 C1.32 0 2.64 0 4 0 C4 0.99 4 1.98 4 3 C5.32 3.33 6.64 3.66 8 4 C7.01 4 6.02 4 5 4 C5 4.99 5 5.98 5 7 C3.68 7 2.36 7 1 7 C1 6.01 1 5.02 1 4 C-0.32 3.67 -1.64 3.34 -3 3 C-2.01 3 -1.02 3 0 3 C0 2.01 0 1.02 0 0 Z " fill="#86C3F6" transform="translate(71,100)"/>
<path d="M0 0 C0 1.65 0 3.3 0 5 C-1.98 5.66 -3.96 6.32 -6 7 C-6.33 5.35 -6.66 3.7 -7 2 C-4.35261084 0.5393715 -3.10551666 0 0 0 Z " fill="#DFDEE3" transform="translate(38,61)"/>
<path d="M0 0 C0.33 1.65 0.66 3.3 1 5 C-1.31 5.33 -3.62 5.66 -6 6 C-5.625 3.5625 -5.625 3.5625 -5 1 C-3 0 -3 0 0 0 Z " fill="#E0DFE4" transform="translate(28,66)"/>
<path d="M0 0 C0.6875 1.8125 0.6875 1.8125 1 4 C-0.4375 5.75 -0.4375 5.75 -2 7 C-2.99 6.67 -3.98 6.34 -5 6 C-5.6875 3.9375 -5.6875 3.9375 -6 2 C-3 0 -3 0 0 0 Z " fill="#DFDEE3" transform="translate(104,60)"/>
<path d="M0 0 C0.99 0.66 1.98 1.32 3 2 C2.25 3.9375 2.25 3.9375 1 6 C-1.125 6.75 -1.125 6.75 -3 7 C-3 3 -3 3 -1.5 1.25 C-1.005 0.8375 -0.51 0.425 0 0 Z " fill="#DFDEE3" transform="translate(38,106)"/>
<path d="M0 0 C1.32 0.66 2.64 1.32 4 2 C2.75 4 2.75 4 1 6 C-0.32 6 -1.64 6 -3 6 C-3 4.68 -3 3.36 -3 2 C-2.01 1.34 -1.02 0.68 0 0 Z " fill="#E1E0E6" transform="translate(26,93)"/>
<path d="M0 0 C1.65 0.33 3.3 0.66 5 1 C4.67 2.32 4.34 3.64 4 5 C2.35 4.67 0.7 4.34 -1 4 C-0.67 2.68 -0.34 1.36 0 0 Z " fill="#E1E0E6" transform="translate(67,42)"/>
</svg>
