<?xml version="1.0" encoding="UTF-8"?>
<svg version="1.1" xmlns="http://www.w3.org/2000/svg" width="141" height="120">
<path d="M0 0 C46.53 0 93.06 0 141 0 C141 39.6 141 79.2 141 120 C94.47 120 47.94 120 0 120 C0 80.4 0 40.8 0 0 Z " fill="#F3F2F8" transform="translate(0,0)"/>
<path d="M0 0 C12.82101876 9.46187667 20.77788185 21.54339449 24.53515625 36.9140625 C26.13593277 53.24198303 22.92610155 68.6300683 12.77734375 81.78515625 C6.72955548 88.87602995 0.05086178 94.74176621 -9.15234375 97.1015625 C-8.65734375 101.5565625 -8.65734375 101.5565625 -8.15234375 106.1015625 C-16.18786068 106.90511419 -22.7861052 103.99839789 -30.15234375 101.1015625 C-29.2696401 96.21968434 -26.42993581 94.04262935 -22.90234375 90.7890625 C-22.32871094 90.22638672 -21.75507812 89.66371094 -21.1640625 89.08398438 C-19.5458192 87.57817028 -18.04373018 86.24680041 -16.15234375 85.1015625 C-13.23046875 85.24609375 -13.23046875 85.24609375 -11.15234375 86.1015625 C-10.49234375 88.0815625 -9.83234375 90.0615625 -9.15234375 92.1015625 C3.17799917 85.43104912 11.95912848 76.79921405 16.66015625 63.3515625 C20.64928527 49.85892021 19.52545694 35.84134985 13.78515625 22.9765625 C7.29574899 11.04693358 -2.51729802 3.32588619 -15.08984375 -1.2734375 C-28.53287955 -5.05528445 -43.30392119 -4.35754713 -55.59765625 2.45703125 C-57.88279448 3.90170338 -60.0120746 5.4511861 -62.15234375 7.1015625 C-62.82910156 7.57980469 -63.50585938 8.05804687 -64.203125 8.55078125 C-73.7850788 15.93725826 -79.59804311 28.28585956 -81.15234375 40.1015625 C-82.46567775 54.58148543 -78.7297188 67.34677213 -70.15234375 79.1015625 C-63.89963069 86.14534671 -56.71580509 90.34953047 -48.15234375 94.1015625 C-48.06887695 93.5638623 -47.98541016 93.02616211 -47.89941406 92.47216797 C-46.93308224 86.9861513 -45.47603695 81.75869077 -43.69921875 76.484375 C-43.47447876 75.81476746 -43.24973877 75.14515991 -43.01818848 74.45526123 C-42.07712751 71.66609556 -41.12893423 68.87965859 -40.1640625 66.09863281 C-39.45417625 64.04394867 -38.76300064 61.98371285 -38.07421875 59.921875 C-37.6575293 58.70773926 -37.24083984 57.49360352 -36.81152344 56.24267578 C-36.08487157 52.78004508 -36.32416805 51.98341777 -38.15234375 49.1015625 C-38.18070313 48.04324219 -38.2090625 46.98492187 -38.23828125 45.89453125 C-39.62481414 40.14101229 -43.49640023 37.30862693 -47.77734375 33.4140625 C-49.38462588 31.94283986 -50.98161038 30.4602614 -52.56640625 28.96484375 C-53.27748535 28.31813721 -53.98856445 27.67143066 -54.72119141 27.00512695 C-56.15234375 25.1015625 -56.15234375 25.1015625 -55.87646484 22.86010742 C-55.63750488 22.2797876 -55.39854492 21.69946777 -55.15234375 21.1015625 C-51.93117737 22.50387871 -49.94172467 24.14329505 -47.578125 26.7265625 C-46.57555664 27.78617188 -46.57555664 27.78617188 -45.55273438 28.8671875 C-44.16987742 30.34706435 -42.79727451 31.83659542 -41.43554688 33.3359375 C-37.19946841 37.77026606 -34.20562774 39.99291618 -28.02416992 40.65234375 C-26.15234375 41.1015625 -26.15234375 41.1015625 -24.15234375 44.1015625 C-23.71484375 47.0390625 -23.71484375 47.0390625 -24.15234375 50.1015625 C-26.37696157 52.26763775 -28.38611897 53.71845011 -31.15234375 55.1015625 C-32.07705281 57.66079116 -32.88754114 60.18451575 -33.6484375 62.79296875 C-33.88264908 63.57163803 -34.11686066 64.35030731 -34.35816956 65.15257263 C-35.10938629 67.65427951 -35.85010357 70.15894043 -36.58984375 72.6640625 C-37.32770788 75.1436432 -38.06781582 77.6225212 -38.81080627 80.10057068 C-39.27278701 81.64339818 -39.73159433 83.18718089 -40.18663025 84.73207092 C-41.63996935 89.611204 -43.31927906 94.35154273 -45.15234375 99.1015625 C-53.95161395 99.74895625 -61.83751759 94.27153419 -68.46484375 88.8515625 C-79.89545379 77.97560231 -86.05386509 63.9308464 -86.49560547 48.21044922 C-86.61366892 38.50563386 -85.73783196 30.86008759 -81.15234375 22.1015625 C-80.48332031 20.76738281 -80.48332031 20.76738281 -79.80078125 19.40625 C-72.58201464 6.21889423 -60.70332055 -2.35108726 -46.66015625 -7.171875 C-30.87406713 -11.74541484 -13.80210239 -8.73080501 0 0 Z " fill="#2D2D2D" transform="translate(104.15234375,13.8984375)"/>
<path d="M0 0 C0.66 2.97 1.32 5.94 2 9 C-2.455 8.01 -2.455 8.01 -7 7 C-3.5 0 -3.5 0 0 0 Z " fill="#E5E4EA" transform="translate(89,106)"/>
<path d="M0 0 C1.32 0.66 2.64 1.32 4 2 C4 3.98 4 5.96 4 8 C2.02 8.99 2.02 8.99 0 10 C-1 9 -1 9 -1.1328125 7.1875 C-1.13023438 6.465625 -1.12765625 5.74375 -1.125 5 C-1.12757812 4.278125 -1.13015625 3.55625 -1.1328125 2.8125 C-1 1 -1 1 0 0 Z " fill="#3BA1F3" transform="translate(72,14)"/>
<path d="M0 0 C1.134375 0.020625 2.26875 0.04125 3.4375 0.0625 C4 2 4 2 4.4375 4.0625 C3.4375 5.0625 3.4375 5.0625 -0.125 5.125 C-1.259375 5.104375 -2.39375 5.08375 -3.5625 5.0625 C-4.125 3.125 -4.125 3.125 -4.5625 1.0625 C-3.5625 0.0625 -3.5625 0.0625 0 0 Z " fill="#379FF3" transform="translate(114.5625,57.9375)"/>
<path d="M0 0 C1.134375 0.020625 2.26875 0.04125 3.4375 0.0625 C4 2 4 2 4.4375 4.0625 C3.4375 5.0625 3.4375 5.0625 -0.125 5.125 C-1.259375 5.104375 -2.39375 5.08375 -3.5625 5.0625 C-4.125 3.125 -4.125 3.125 -4.5625 1.0625 C-3.5625 0.0625 -3.5625 0.0625 0 0 Z " fill="#339EF3" transform="translate(31.5625,57.9375)"/>
</svg>
