<?xml version="1.0" encoding="UTF-8"?>
<svg version="1.1" xmlns="http://www.w3.org/2000/svg" width="133" height="132">
<path d="M0 0 C43.89 0 87.78 0 133 0 C133 43.56 133 87.12 133 132 C89.11 132 45.22 132 0 132 C0 88.44 0 44.88 0 0 Z " fill="#F3F2F8" transform="translate(0,0)"/>
<path d="M0 0 C4.2559975 1.59394745 6.74568603 4.82091261 9.6640625 8.13671875 C10.79669223 9.36780426 11.93220932 10.59623838 13.0703125 11.82226562 C14.85029222 13.74324594 16.61056256 15.67084763 18.32617188 17.6496582 C24.6893582 25.31273613 24.6893582 25.31273613 33.39196777 29.472229 C38.71840149 29.7588862 43.78644823 29.04322956 49 28 C49.14308594 26.88496094 49.28617187 25.76992188 49.43359375 24.62109375 C50 21 50 21 51.0625 19.0625 C54.27905997 17.29858001 57.49385409 17.26075237 61 18 C63.5625 20.0625 63.5625 20.0625 65 23 C65 26.8137751 64.84985071 29.02424548 62.3125 31.9375 C59.42329305 33.26497346 57.14712834 33.07318903 54 33 C51.10519575 42.60253173 51.10519575 42.60253173 53.07330322 52.08746338 C56.82386302 57.13245171 61.59959514 61.19431756 66.3125 65.3125 C68.39470528 67.2146695 70.46340452 69.13039948 72.52763367 71.05204773 C73.80971273 72.23642406 75.10478033 73.40693205 76.41389465 74.56135559 C81.47949909 79.09576488 81.47949909 79.09576488 82 83 C80.92578125 84.73828125 80.92578125 84.73828125 79.3125 86.3125 C78.79300781 86.84488281 78.27351563 87.37726563 77.73828125 87.92578125 C76 89 76 89 74.04296875 88.73046875 C73.36878906 88.48941406 72.69460937 88.24835938 72 88 C68.34794866 86.72141462 66.57180951 87.3068956 63.0625 88.875 C56.92551135 91.5877956 51.62295315 92.16176693 44.9375 92.125 C44.23044922 92.12886719 43.52339844 92.13273437 42.79492188 92.13671875 C39.28711951 92.13013133 36.43024541 91.85756135 33 91 C33 94.3 33 97.6 33 101 C33.79696289 100.98952637 34.59392578 100.97905273 35.41503906 100.96826172 C39.02666062 100.92668228 42.63823179 100.90066739 46.25 100.875 C47.50425781 100.85824219 48.75851563 100.84148437 50.05078125 100.82421875 C51.25605469 100.81777344 52.46132812 100.81132813 53.703125 100.8046875 C55.36843262 100.78897705 55.36843262 100.78897705 57.06738281 100.77294922 C59.99785372 100.99983383 61.58729412 101.36227212 64 103 C66 106 66 106 66 116 C35.64 116 5.28 116 -26 116 C-26 106 -26 106 -24.36328125 102.89453125 C-18.8874003 99.80997578 -13.34542773 100.48043052 -7.1875 100.6875 C-5.92228516 100.71005859 -4.65707031 100.73261719 -3.35351562 100.75585938 C-0.23447381 100.81470922 2.88215902 100.8968863 6 101 C6.0062916 96.8111427 5.94647853 92.62569531 5.875 88.4375 C5.87757812 87.25607422 5.88015625 86.07464844 5.8828125 84.85742188 C5.73387932 78.21127857 5.38853926 74.13050853 0.50585938 69.43041992 C0.00892578 68.95838135 -0.48800781 68.48634277 -1 68 C-8.34791956 56.45784314 -12.20294138 41.77493095 -9.42578125 28.19140625 C-8.70094645 25.42629572 -7.88589445 22.71754108 -7 20 C-6.57074219 18.66775391 -6.57074219 18.66775391 -6.1328125 17.30859375 C-5.43954007 15.19906479 -4.73007432 13.09702197 -4 11 C-4.66 10.34 -5.32 9.68 -6 9 C-5.88679697 5.71711224 -4.71715137 4.69645513 -2.4375 2.25 C-1.633125 1.5075 -0.82875 0.765 0 0 Z " fill="#313131" transform="translate(39,6)"/>
<path d="M0 0 C0.99 0.33 1.98 0.66 3 1 C3 1.66 3 2.32 3 3 C3.83533516 3.32892242 3.83533516 3.32892242 4.68754578 3.66448975 C7.75850836 5.43806086 9.65316203 7.71019647 11.99926758 10.36816406 C17.79224041 16.83697666 23.85735674 22.98628581 30.01171875 29.109375 C31.11723076 30.21301488 32.22251698 31.31688097 33.32759094 32.42095947 C36.19396768 35.2835735 39.063337 38.14316836 41.93341064 41.0020752 C44.8786986 43.93701226 47.82104913 46.87489118 50.76367188 49.8125 C56.50629591 55.54449735 62.25209503 61.27329827 68 67 C60.95244914 72.44177977 54.08616022 73.14246002 45.3125 73.125 C44.00925781 73.12757812 42.70601562 73.13015625 41.36328125 73.1328125 C38 73 38 73 35 72 C34.94392578 70.91332031 34.94392578 70.91332031 34.88671875 69.8046875 C34.41658235 61.9513884 34.41658235 61.9513884 31 55 C26.90665035 52.07617882 23.10081419 51.43432287 18.1796875 51.55859375 C14.5470736 52.29423062 12.67422939 54.51678699 10 57 C4.70923159 55.23641053 2.62966271 49.69026402 0 45 C-6.24227742 31.75146495 -6.47191079 18.94907952 -2 5 C-1.35160875 3.32613889 -0.69040574 1.65697379 0 0 Z " fill="#F2F1F7" transform="translate(38,21)"/>
<path d="M0 0 C1.10658966 0.00607269 1.10658966 0.00607269 2.23553467 0.01226807 C3.01289978 0.00876343 3.79026489 0.00525879 4.59118652 0.00164795 C7.16803849 -0.00717493 9.74461727 -0.00131833 12.32147217 0.00543213 C14.10744276 0.00408564 15.89341299 0.00214524 17.67938232 -0.00036621 C21.42534876 -0.00331823 25.17121992 0.00098264 28.91717529 0.01031494 C33.7261005 0.02170953 38.53480248 0.01515047 43.34371948 0.00317001 C47.03250825 -0.00404651 50.72124383 -0.00176162 54.41003418 0.0034256 C56.18351264 0.00476267 57.95699587 0.00311237 59.73046875 -0.00153351 C62.20624642 -0.00659536 64.68165927 0.0011065 67.15740967 0.01226807 C67.89513611 0.0082196 68.63286255 0.00417114 69.39294434 0 C74.46794339 0.04252835 74.46794339 0.04252835 76.69647217 2.27105713 C76.69647217 3.92105713 76.69647217 5.57105713 76.69647217 7.27105713 C48.97647217 7.27105713 21.25647217 7.27105713 -7.30352783 7.27105713 C-7.30352783 0.57562381 -6.284433 0.05266337 0 0 Z " fill="#F4F3F9" transform="translate(24.30352783203125,110.72894287109375)"/>
<path d="M0 0 C2.8100346 1.79363911 4.50940468 3.01880935 6 6 C6.07199934 8.88573352 6.0927068 11.74065115 6.0625 14.625 C6.041875 17.38875 6.02125 20.1525 6 23 C-0.6 23 -7.2 23 -14 23 C-14.0825 20.298125 -14.165 17.59625 -14.25 14.8125 C-14.30462402 13.54950073 -14.30462402 13.54950073 -14.36035156 12.26098633 C-14.41837972 8.32396321 -14.27286024 6.43127703 -12.109375 3.01171875 C-8.46761171 -0.46144439 -4.8778655 -0.70084274 0 0 Z " fill="#E7E8EE" transform="translate(63,76)"/>
<path d="M0 0 C2 0 2 0 4.0078125 1.88671875 C4.44770508 2.34481934 4.88759766 2.80291992 5.34082031 3.27490234 C7.3978396 5.41364547 9.50738006 7.49534844 11.6171875 9.58203125 C13.3698604 11.32545173 15.12246256 13.06894335 16.875 14.8125 C17.74769531 15.67681641 18.62039062 16.54113281 19.51953125 17.43164062 C20.37675781 18.28564453 21.23398437 19.13964844 22.1171875 20.01953125 C23.27130127 21.16578979 23.27130127 21.16578979 24.44873047 22.33520508 C26.43259694 24.40734886 28.3077539 26.50072356 30.17456055 28.67456055 C34.57993855 33.74545689 39.32842703 38.45325471 44.08984375 43.1875 C45.04412993 44.13991612 45.99819188 45.09255695 46.95204163 46.04541016 C49.4370797 48.52666925 51.92510796 51.00490791 54.41381836 53.48248291 C56.96327496 56.02162485 59.50982688 58.56367646 62.05664062 61.10546875 C67.03495631 66.07312882 72.01644371 71.03759686 77 76 C76.505 77.485 76.505 77.485 76 79 C72.35457175 78.44352038 70.97789917 77.20963057 68.68406677 74.37866211 C65.3201984 70.35788903 61.77114005 66.63539601 58.05493164 62.94140625 C57.40042023 62.28674881 56.74590881 61.63209137 56.07156372 60.95759583 C53.93679311 58.82351433 51.79851725 56.69298335 49.66015625 54.5625 C48.16778522 53.07199672 46.6756368 51.58127052 45.18370056 50.09033203 C41.27824587 46.18867446 37.36979621 42.2900308 33.46069336 38.39202881 C29.46350202 34.40511224 25.46918061 30.41532264 21.47460938 26.42578125 C13.65252958 18.61438923 5.82727952 10.80618147 -2 3 C-1.34 2.01 -0.68 1.02 0 0 Z " fill="#E9E8EE" transform="translate(39,11)"/>
<path d="M0 0 C3.0625 0.3125 3.0625 0.3125 5 1.4375 C6.0625 3.3125 6.0625 3.3125 5.875 6.375 C5.0625 9.3125 5.0625 9.3125 3.0625 11.3125 C-0.0679173 11.64552312 -2.11648298 11.78921956 -4.875 10.1875 C-5.9375 8.3125 -5.9375 8.3125 -5.75 5.25 C-4.6778982 1.37393966 -4.050591 0.43091394 0 0 Z " fill="#40A4F4" transform="translate(58.9375,79.6875)"/>
<path d="M0 0 C6.6 0 13.2 0 20 0 C20 1.32 20 2.64 20 4 C13.4 4 6.8 4 0 4 C0 2.68 0 1.36 0 0 Z " fill="#E0DFE4" transform="translate(49,103)"/>
<path d="M0 0 C2.625 0.375 2.625 0.375 5 1 C5.625 2.875 5.625 2.875 6 5 C4 7 4 7 1.375 7.125 C0.59125 7.08375 -0.1925 7.0425 -1 7 C-1.625 4.625 -1.625 4.625 -2 2 C-1.34 1.34 -0.68 0.68 0 0 Z " fill="#EBEAF0" transform="translate(94,28)"/>
<path d="M0 0 C-3.465 2.97 -3.465 2.97 -7 6 C-8.37562854 4.71034824 -9.70766393 3.37310707 -11 2 C-11 1.34 -11 0.68 -11 0 C-3.375 -1.125 -3.375 -1.125 0 0 Z " fill="#DEDDE3" transform="translate(86,39)"/>
<path d="M0 0 C1.10844919 3.32534757 0.84454356 5.62182575 0 9 C-1.32 8.01 -2.64 7.02 -4 6 C-2.84826645 3.53199953 -1.95216435 1.95216435 0 0 Z " fill="#E6E5EA" transform="translate(87,43)"/>
</svg>
