<?xml version="1.0" encoding="UTF-8"?>
<svg version="1.1" xmlns="http://www.w3.org/2000/svg" width="119" height="93">
<path d="M0 0 C39.27 0 78.54 0 119 0 C119 30.69 119 61.38 119 93 C79.73 93 40.46 93 0 93 C0 62.31 0 31.62 0 0 Z " fill="#313131" transform="translate(0,0)"/>
<path d="M0 0 C39.27 0 78.54 0 119 0 C119 30.69 119 61.38 119 93 C79.73 93 40.46 93 0 93 C0 62.31 0 31.62 0 0 Z M107.375 4.0625 C105.76306549 6.09059059 105.76306549 6.09059059 105.125 9.375 C103.85078938 13.48078976 102.2049464 15.21675707 99 18 C98.5978125 16.329375 98.5978125 16.329375 98.1875 14.625 C97.34190981 10.78159049 97.34190981 10.78159049 94 9 C91.39373102 8.80068617 88.89409892 8.71661878 86.28735352 8.7253418 C85.50330139 8.72023087 84.71924927 8.71511993 83.91143799 8.70985413 C81.3171833 8.69594323 78.72319383 8.696916 76.12890625 8.69921875 C74.32673544 8.69533262 72.52456555 8.69099813 70.72239685 8.68623352 C66.94372591 8.67876808 63.1651484 8.67906491 59.38647461 8.68432617 C54.54295278 8.69012107 49.69981331 8.67319095 44.85635471 8.6499815 C41.1340257 8.63525315 37.41178895 8.63437123 33.68943596 8.63749123 C31.90364767 8.63697756 30.11785427 8.63173123 28.33209419 8.62167931 C25.83515672 8.60934959 23.33896643 8.61608541 20.84204102 8.62768555 C19.73456764 8.61621994 19.73456764 8.61621994 18.60472107 8.60452271 C15.59218116 8.63547422 13.28195946 8.86805319 10.53825378 10.15200806 C8.35263292 12.77771896 8.51792536 14.54844945 8.54589844 17.94018555 C8.54620056 19.16122482 8.54650269 20.3822641 8.54681396 21.64030457 C8.56745911 22.95912125 8.58810425 24.27793793 8.609375 25.63671875 C8.61683674 27.00005769 8.62252999 28.36340736 8.62652588 29.72676086 C8.64178791 33.31256804 8.68107328 36.8977256 8.7253418 40.48327637 C8.76628304 44.14305839 8.78453436 47.80294554 8.8046875 51.46289062 C8.84756812 58.64222302 8.91582492 65.82102044 9 73 C8.05125 73.103125 7.1025 73.20625 6.125 73.3125 C2.70892499 73.68539295 2.70892499 73.68539295 1 77 C0.64445943 79.86932163 0.64445943 79.86932163 0.6875 83 C0.67074219 84.051875 0.65398438 85.10375 0.63671875 86.1875 C1.05273614 89.40827981 1.49808296 90.05379795 4 92 C5.94110984 92.45068862 5.94110984 92.45068862 8.09899902 92.38768005 C8.93178879 92.39758469 9.76457855 92.40748932 10.62260437 92.41769409 C11.53282852 92.41319244 12.44305267 92.4086908 13.38085938 92.40405273 C14.82269341 92.41434761 14.82269341 92.41434761 16.2936554 92.42485046 C19.47716968 92.44318124 22.66019417 92.4392723 25.84375 92.43359375 C28.05188153 92.43815223 30.26001163 92.4434568 32.46813965 92.44947815 C37.09844727 92.45842138 41.72858252 92.45597193 46.35888672 92.44604492 C52.30116534 92.4345484 58.24285035 92.45477145 64.18505096 92.48396206 C68.74546099 92.50228095 73.30572759 92.5020403 77.86616516 92.49632454 C80.05748834 92.49617082 82.24882093 92.50225628 84.44010925 92.51461601 C87.50016879 92.52944426 90.5591166 92.51890923 93.61914062 92.50170898 C94.98447685 92.51621094 94.98447685 92.51621094 96.37739563 92.53100586 C101.16350799 92.59587914 101.16350799 92.59587914 105.0592041 90.15052795 C106.29959024 87.31517857 106.43367023 85.02812382 106.4375 81.9375 C106.46650391 80.37322266 106.46650391 80.37322266 106.49609375 78.77734375 C106.24821235 75.91751207 106.24821235 75.91751207 104.22265625 74.12890625 C101.82109339 72.69810288 101.82109339 72.69810288 98 73 C97.94003911 66.14918014 97.94254055 59.30038984 97.98779297 52.44946289 C97.99588741 50.1206927 97.98985632 47.79182775 97.96923828 45.46313477 C97.94201552 42.10828706 97.96614323 38.75706411 98 35.40234375 C97.9805835 34.36665756 97.96116699 33.33097137 97.94116211 32.26390076 C98.02362728 28.09960206 98.09932164 25.16938571 100.69384766 21.80081177 C105.10448631 17.80074745 109.38262032 15.8401761 115 14 C117.28930236 12.11861241 117.28930236 12.11861241 117.375 9.0625 C117.29891329 5.95163458 117.29891329 5.95163458 115.25 4.125 C112.41578243 2.70789122 110.14936244 2.24849379 107.375 4.0625 Z " fill="#F1F0F6" transform="translate(0,0)"/>
<path d="M0 0 C21.45 0 42.9 0 65 0 C65 10 65 10 62.375 13.6015625 C61.27474158 14.63632935 60.14878851 15.64438999 59 16.625 C58.14148438 17.41583984 58.14148438 17.41583984 57.265625 18.22265625 C55.86559519 19.50601691 54.4356549 20.75662031 53 22 C48.18219072 20.32903446 45.06911978 17.69100488 41.28125 14.36328125 C39.10439284 12.82607228 39.10439284 12.82607228 36.64453125 12.8515625 C32.54591635 14.63146321 30.09706175 17.74423727 27.1875 21.0625 C26.2912793 22.05733398 26.2912793 22.05733398 25.37695312 23.07226562 C23.90766589 24.70611303 22.44942962 26.348546 21 28 C18.08203125 27.16015625 18.08203125 27.16015625 15 26 C13.6875 23.4375 13.6875 23.4375 13 21 C11.94689723 19.72996677 11.94689723 19.72996677 9.5625 19.8125 C6.83265325 19.73160017 6.83265325 19.73160017 5 22 C4.58333333 25 4.58333333 25 5 28 C7.88173518 30.41511427 7.88173518 30.41511427 11.375 29.4375 C15.62195731 28.92493619 16.5122753 29.83195492 20 32 C23.823147 30.75506768 25.96641492 28.0856791 28.5625 25.125 C29.32691406 24.26132812 30.09132813 23.39765625 30.87890625 22.5078125 C32.67181576 20.38801893 34.36679007 18.24370693 36 16 C39.58513106 17.62184501 42.58992323 19.79256239 45.75 22.125 C46.73484375 22.84945312 47.7196875 23.57390625 48.734375 24.3203125 C49.48203125 24.87460937 50.2296875 25.42890625 51 26 C54.47387226 24.48962076 56.91268083 22.4342547 59.6875 19.875 C63.90035587 16 63.90035587 16 65 16 C65 25.24 65 34.48 65 44 C43.55 44 22.1 44 0 44 C0 29.48 0 14.96 0 0 Z " fill="#EDEFF7" transform="translate(21,21)"/>
<path d="M0 0 C0.74446381 0.00359528 1.48892761 0.00719055 2.25595093 0.01089478 C3.0363826 0.01074875 3.81681427 0.01060272 4.62089539 0.01045227 C7.21273534 0.01115158 9.80450432 0.01894481 12.39633179 0.02676392 C14.18852194 0.02862803 15.9807126 0.03005196 17.77290344 0.03105164 C22.49938351 0.03487733 27.22583305 0.04470805 31.95230103 0.05575562 C36.77153104 0.06596863 41.59076596 0.07054902 46.41000366 0.07559204 C55.87290773 0.08633027 65.3357891 0.10340731 74.79867554 0.12442017 C74.79867554 3.75442017 74.79867554 7.38442017 74.79867554 11.12442017 C73.47867554 11.78442017 72.15867554 12.44442017 70.79867554 13.12442017 C70.79867554 10.15442017 70.79867554 7.18442017 70.79867554 4.12442017 C46.70867554 4.12442017 22.61867554 4.12442017 -2.20132446 4.12442017 C-2.20132446 21.28442017 -2.20132446 38.44442017 -2.20132446 56.12442017 C21.88867554 56.12442017 45.97867554 56.12442017 70.79867554 56.12442017 C70.64045194 44.08243446 70.64045194 44.08243446 70.43832397 32.04116821 C70.4266412 30.53116992 70.4164484 29.02115905 70.40805054 27.51113892 C70.38758667 26.72759033 70.3671228 25.94404175 70.34603882 25.13674927 C70.34457397 22.86148071 70.34457397 22.86148071 70.79867554 19.12442017 C72.11867554 18.13442017 73.43867554 17.14442017 74.79867554 16.12442017 C74.79867554 30.64442017 74.79867554 45.16442017 74.79867554 60.12442017 C48.06867554 60.12442017 21.33867554 60.12442017 -6.20132446 60.12442017 C-6.22194946 50.41004517 -6.24257446 40.69567017 -6.26382446 30.68692017 C-6.27748047 26.08025391 -6.27748047 26.08025391 -6.29141235 21.38052368 C-6.29433125 18.96312504 -6.29687987 16.54572591 -6.29898071 14.12832642 C-6.30409668 12.85952637 -6.30921265 11.59072632 -6.31448364 10.28347778 C-6.31460449 9.0857373 -6.31472534 7.88799683 -6.31484985 6.65396118 C-6.31707047 5.60805313 -6.31929108 4.56214508 -6.32157898 3.48454285 C-6.09764468 -0.91040571 -3.85037066 0.00784716 0 0 Z " fill="#E9E8EE" transform="translate(19.201324462890625,12.875579833984375)"/>
<path d="M0 0 C1.43352212 0.00015908 2.86704998 0.00585132 4.30053711 0.01586914 C5.43041298 0.01799156 5.43041298 0.01799156 6.58311462 0.02015686 C8.99807646 0.02577163 11.41294687 0.03832656 13.82788086 0.05102539 C15.46134307 0.05603849 17.09480672 0.06060173 18.72827148 0.06469727 C22.74067671 0.07574585 26.75301326 0.09302033 30.76538086 0.11352539 C31.42538086 2.09352539 32.08538086 4.07352539 32.76538086 6.11352539 C36.3903142 6.17140323 40.01512943 6.20707959 43.64038086 6.23852539 C45.18918945 6.26366211 45.18918945 6.26366211 46.76928711 6.28930664 C48.24848633 6.29897461 48.24848633 6.29897461 49.75756836 6.30883789 C50.66877441 6.31931152 51.57998047 6.32978516 52.51879883 6.34057617 C54.96828522 6.33223532 54.96828522 6.33223532 56.76538086 4.11352539 C57.09538086 2.79352539 57.42538086 1.47352539 57.76538086 0.11352539 C69.31538086 0.11352539 80.86538086 0.11352539 92.76538086 0.11352539 C92.76538086 3.74352539 92.76538086 7.37352539 92.76538086 11.11352539 C60.75538086 11.11352539 28.74538086 11.11352539 -4.23461914 11.11352539 C-4.23461914 0.14862238 -4.23461914 0.14862238 0 0 Z " fill="#F0EFF5" transform="translate(9.234619140625,76.886474609375)"/>
<path d="M0 0 C6.27 0 12.54 0 19 0 C18.67 1.32 18.34 2.64 18 4 C12.39 4 6.78 4 1 4 C0.67 2.68 0.34 1.36 0 0 Z " fill="#DFDEE4" transform="translate(44,77)"/>
<path d="M0 0 C0.99 0 1.98 0 3 0 C3 5.61 3 11.22 3 17 C2.01 17 1.02 17 0 17 C0 11.39 0 5.78 0 0 Z " fill="#2196F3" transform="translate(56,44)"/>
<path d="M0 0 C1.32 0 2.64 0 4 0 C4 2.97 4 5.94 4 9 C2.68 9 1.36 9 0 9 C0 6.03 0 3.06 0 0 Z " fill="#2E9CF3" transform="translate(71,52)"/>
<path d="M0 0 C0.33 0 0.66 0 1 0 C1.03738281 0.74765625 1.07476562 1.4953125 1.11328125 2.265625 C1.17902344 3.25046875 1.24476563 4.2353125 1.3125 5.25 C1.37050781 6.22453125 1.42851562 7.1990625 1.48828125 8.203125 C2.04636524 11.25341611 2.96369776 12.70711276 5 15 C3.35 15 1.7 15 0 15 C0 10.05 0 5.1 0 0 Z " fill="#E3E2E8" transform="translate(0,78)"/>
</svg>
